<?xml version="1.0" encoding="UTF-8" standalone="no"?>
<!DOCTYPE svg PUBLIC "-//W3C//DTD SVG 1.1//EN"
 "http://www.w3.org/Graphics/SVG/1.1/DTD/svg11.dtd">
<!-- Generated by graphviz version 9.0.0 (20230911.1827)
 -->
<!-- Title: G Pages: 1 -->
<svg width="127pt" height="260pt"
 viewBox="0.00 0.00 127.00 260.00" xmlns="http://www.w3.org/2000/svg" xmlns:xlink="http://www.w3.org/1999/xlink">
<g id="graph0" class="graph" transform="scale(1 1) rotate(0) translate(4 256)">
<title>G</title>
<polygon fill="white" stroke="none" points="-4,4 -4,-256 123,-256 123,4 -4,4"/>
<!-- A -->
<g id="node1" class="node">
<title>A</title>
<ellipse fill="none" stroke="black" cx="82" cy="-234" rx="27" ry="18"/>
<text text-anchor="middle" x="82" y="-228.95" font-family="Times,serif" font-size="14.00">A</text>
</g>
<!-- B -->
<g id="node2" class="node">
<title>B</title>
<ellipse fill="none" stroke="black" cx="27" cy="-162" rx="27" ry="18"/>
<text text-anchor="middle" x="27" y="-156.95" font-family="Times,serif" font-size="14.00">B</text>
</g>
<!-- A&#45;&gt;B -->
<g id="edge1" class="edge">
<title>A&#45;&gt;B</title>
<path fill="none" stroke="black" d="M69.79,-217.46C62.89,-208.67 54.09,-197.48 46.27,-187.53"/>
<polygon fill="black" stroke="black" points="49.04,-185.38 40.11,-179.68 43.53,-189.71 49.04,-185.38"/>
</g>
<!-- C -->
<g id="node3" class="node">
<title>C</title>
<ellipse fill="none" stroke="black" cx="65" cy="-90" rx="27" ry="18"/>
<text text-anchor="middle" x="65" y="-84.95" font-family="Times,serif" font-size="14.00">C</text>
</g>
<!-- A&#45;&gt;C -->
<g id="edge3" class="edge">
<title>A&#45;&gt;C</title>
<path fill="none" stroke="black" d="M79.92,-215.59C77.05,-191.61 71.84,-148.14 68.4,-119.42"/>
<polygon fill="black" stroke="black" points="71.89,-119.13 67.23,-109.61 64.94,-119.96 71.89,-119.13"/>
</g>
<!-- D -->
<g id="node4" class="node">
<title>D</title>
<ellipse fill="none" stroke="black" cx="92" cy="-18" rx="27" ry="18"/>
<text text-anchor="middle" x="92" y="-12.95" font-family="Times,serif" font-size="14.00">D</text>
</g>
<!-- A&#45;&gt;D -->
<g id="edge5" class="edge">
<title>A&#45;&gt;D</title>
<path fill="none" stroke="black" d="M86.25,-216.12C93.11,-186.84 105.44,-124.73 101,-72 100.32,-63.97 99.08,-55.33 97.73,-47.4"/>
<polygon fill="black" stroke="black" points="101.17,-46.79 95.93,-37.58 94.29,-48.05 101.17,-46.79"/>
</g>
<!-- B&#45;&gt;C -->
<g id="edge2" class="edge">
<title>B&#45;&gt;C</title>
<path fill="none" stroke="black" d="M35.81,-144.76C40.27,-136.55 45.8,-126.37 50.84,-117.09"/>
<polygon fill="black" stroke="black" points="53.82,-118.94 55.51,-108.48 47.67,-115.6 53.82,-118.94"/>
</g>
<!-- C&#45;&gt;D -->
<g id="edge4" class="edge">
<title>C&#45;&gt;D</title>
<path fill="none" stroke="black" d="M71.54,-72.05C74.52,-64.32 78.13,-54.96 81.48,-46.27"/>
<polygon fill="black" stroke="black" points="84.65,-47.79 84.98,-37.2 78.12,-45.27 84.65,-47.79"/>
</g>
</g>
</svg>
